<?xml version="1.0" encoding="iso-8859-1"?>
<!-- Generator: Adobe Illustrator 16.0.0, SVG Export Plug-In . SVG Version: 6.00 Build 0)  -->
<!DOCTYPE svg PUBLIC "-//W3C//DTD SVG 1.1//EN" "http://www.w3.org/Graphics/SVG/1.1/DTD/svg11.dtd">
<svg version="1.1" id="Capa_1" xmlns="http://www.w3.org/2000/svg" xmlns:xlink="http://www.w3.org/1999/xlink" x="0px" y="0px"
	 width="569.903px" height="569.904px" viewBox="0 0 569.903 569.904" style="enable-background:new 0 0 569.903 569.904;"
	 xml:space="preserve">
<g>
	<g>
		<path d="M53.599,67.393c-5.508-4.284-11.934-7.344-18.054-10.71c-1.224-0.612-2.142,1.224-0.918,1.836
			c5.814,3.366,11.934,7.65,18.054,10.404C53.599,69.229,54.517,68.004,53.599,67.393z"/>
		<path d="M55.435,63.721c-3.672-3.672-9.18-6.12-13.464-8.568c-1.53-0.918-2.754,1.53-1.224,2.448
			c4.284,2.754,9.18,6.426,14.076,7.956C55.435,65.25,56.046,64.333,55.435,63.721z"/>
		<path d="M78.69,85.752c-3.06-1.836-5.814-3.672-8.568-5.508v-0.306v-0.306c-0.306-0.918-1.224-0.918-1.53-0.306
			c-0.306-0.306-0.612-0.306-0.918-0.612c-1.224-1.53-4.284-3.06-5.508-3.978c-2.448-1.836-4.896-3.672-7.344-5.508
			c-1.224-0.918-2.142,0.918-1.224,1.836c3.672,2.754,7.038,5.508,10.71,8.262c-0.306,0.612-0.306,1.224,0.306,1.53
			c3.978,3.366,7.956,6.12,12.546,7.956C78.997,88.812,80.526,86.67,78.69,85.752z"/>
		<path d="M82.363,80.856c-2.754-1.53-5.508-3.366-7.956-5.202l0,0c-0.612-1.53-1.53-2.754-3.06-3.672
			c-0.918-0.612-1.836,0-1.836,0.612c-3.06-1.836-6.12-3.978-8.874-6.426c-1.53-1.224-3.672,0.918-2.142,2.142
			c3.978,3.366,8.262,6.426,13.158,8.874c0,0.306,0,0.612,0.612,0.918c2.754,2.142,5.814,3.978,9.18,5.508
			C82.975,84.223,83.893,81.774,82.363,80.856z"/>
		<path d="M64.309,107.479c-0.306-0.612-0.918-1.224-1.224-1.836s-1.224-0.612-1.53,0c-3.978-2.754-8.262-5.202-12.546-7.956
			c-1.224-0.612-2.142,0.918-0.918,1.836c4.896,3.06,9.792,6.732,14.688,9.486C63.697,109.621,64.92,108.396,64.309,107.479z"/>
		<path d="M69.511,103.194c-5.202-3.366-10.71-6.12-15.606-10.098c-0.918-0.918-2.448,0.612-1.53,1.53
			c4.59,4.284,10.098,8.568,16.218,10.404C69.816,105.031,70.429,103.807,69.511,103.194z"/>
		<path d="M83.281,108.703c-3.06-3.06-6.732-5.814-10.404-8.568c0.918-0.306,1.53-1.53,0.306-2.142
			c-3.672-2.448-7.344-4.896-11.016-7.038c-1.53-0.918-3.06,1.53-1.53,2.448c2.448,1.53,4.896,3.06,7.65,4.59
			c-0.612,0.306-1.224,1.224-0.306,2.142c4.284,3.672,8.874,8.262,14.382,10.404C83.281,110.844,83.893,109.314,83.281,108.703z"/>
		<path d="M116.94,97.993c-4.896-2.754-9.486-5.508-14.382-8.262c0-0.306,0-0.612-0.306-0.918c-0.918-0.918-1.53-1.836-2.142-2.448
			c-0.306-0.612-1.224-0.306-1.53,0c-3.06-2.142-6.12-4.284-9.18-6.426c0.306-0.612,0.306-1.224-0.306-1.53
			c-3.366-2.142-6.732-3.978-10.404-5.814c-1.836-0.918-3.672,1.836-1.836,3.061c3.06,1.53,6.12,2.754,9.18,3.978
			c-0.612,0.918-0.918,2.142,0.306,2.754c4.284,3.366,8.874,6.426,13.77,8.874c0.612,0.306,1.224,0,1.53-0.306
			c4.284,3.366,9.18,6.426,14.076,8.568C117.247,100.134,118.165,98.604,116.94,97.993z"/>
		<path d="M86.953,75.349C87.259,75.349,87.259,75.349,86.953,75.349"/>
		<path d="M75.019,118.8c-3.978-2.142-7.956-4.284-11.628-6.732c-0.612-0.306-0.918,0.612-0.612,0.918
			c3.672,2.754,7.65,5.202,11.628,7.038C75.325,120.024,75.63,119.106,75.019,118.8z"/>
		<path d="M77.467,112.986c-3.978-3.672-8.874-6.732-13.77-8.874c-0.306,0-0.918,0.306-0.612,0.612
			c0.306,0.612,0.612,1.224,0.918,1.836c0,0.306,0.612,0,0.306-0.306c-0.612-1.53,0-0.612,1.224,0.306
			c1.224,0.918,2.448,1.53,3.672,2.448c2.448,1.836,4.59,3.672,7.038,5.508C77.161,115.128,78.079,113.904,77.467,112.986z"/>
		<path d="M99.805,108.09c-0.918,0.306-8.262-6.12-8.874-6.732c-0.918-0.918-2.142,0.306-2.448,1.53
			c-4.284-3.06-9.486-4.896-13.77-7.956c-1.224-0.918-2.448,1.224-1.224,1.836c4.284,3.06,9.486,6.732,14.688,7.65
			c0.306,0,0.306-0.306,0.612-0.306l0,0c2.142,1.53,9.486,10.098,12.24,5.814C101.641,109.008,101.029,107.785,99.805,108.09z"/>
		<path d="M97.051,93.097c-4.896-3.672-10.71-6.732-16.218-9.486c-1.53-0.918-3.06,1.53-1.53,2.448
			c5.508,3.366,10.71,6.732,16.83,8.874C97.356,95.239,97.969,93.708,97.051,93.097z"/>
		<path d="M83.281,127.369c-4.59-2.448-8.874-4.896-13.158-8.262c-1.224-0.918-2.754,1.224-1.224,2.142
			c4.284,3.366,8.568,5.814,13.77,7.65C83.586,129.51,84.199,127.98,83.281,127.369z"/>
		<path d="M85.117,122.473c-3.06-3.06-6.732-5.508-9.792-7.956c-1.224-0.918-2.754,0.612-1.53,1.53
			c3.366,2.754,6.732,5.508,10.404,7.956C84.811,124.309,85.729,123.084,85.117,122.473z"/>
		<path d="M89.095,116.046c-0.612-0.612-1.53,0.612-0.918,1.224c0.306,0.306,0.306,0.612,0.612,0.612
			c-4.284-2.142-7.956-4.896-11.322-8.568c-1.224-1.224-3.06,0.612-1.836,1.836c3.978,4.59,9.18,8.568,15.3,10.098
			c0.918,0.306,1.53-0.612,1.224-1.53C91.236,118.188,90.318,116.964,89.095,116.046z"/>
		<path d="M95.521,112.375c-0.306-0.306-0.612-0.306-1.224,0c-3.978-3.06-7.956-5.814-11.322-9.18
			c-1.224-1.224-2.754,0.612-1.836,1.836c3.672,3.978,7.956,7.956,13.158,10.098c0.918,0.306,1.53,0,1.53-0.918
			C96.133,113.292,96.133,112.986,95.521,112.375z"/>
		<path d="M567.984,462.439c-0.306-1.225-0.918-2.448-2.142-3.366c-23.562-17.442-47.736-33.354-72.216-49.267
			c-0.307-0.611-0.612-1.529-1.225-2.142c-9.792-10.71-30.294-14.382-46.206-13.771c60.588-74.052,74.053-176.255,79.561-269.585
			c21.726-14.076,35.802-37.332,23.562-64.872c-7.956-18.054-26.622-24.48-44.981-25.092c-10.099-0.306-26.316,1.836-30.906,11.934
			c-3.979,3.366-7.038,7.956-8.874,13.77c-1.224,3.672-2.142,8.262-2.142,12.852c-100.368-29.376-214.812,20.502-290.395,85.68
			c-0.612,0.612-1.53,1.224-2.142,1.836c-0.306-0.612-0.918-1.224-1.53-1.836c-11.934-9.18-23.256-18.054-34.578-27.234
			c-5.202-4.284-10.71-10.404-16.83-14.688c11.628-1.53,22.95-3.06,34.578-4.284c4.896-0.612,6.426-6.12,2.448-8.874
			C109.291,69.535,59.106,44.136,6.475,24.858c-4.59-1.53-7.956,3.978-5.814,7.65c28.152,51.102,53.856,103.428,75.276,157.59
			c1.53,4.284,8.568,5.202,9.792,0c3.978-17.748,7.65-34.272,7.038-52.326c7.038,6.426,14.076,12.852,21.114,19.278
			c8.874,7.956,16.524,17.748,25.704,25.398c3.366,2.754,9.792-0.918,6.732-5.202c-12.24-17.748-32.436-33.66-51.408-44.676
			c3.672-2.448,9.792-6.732,12.546-11.016c5.508,7.956,15.3,14.382,22.338,20.196c10.404,8.874,21.114,17.442,32.13,25.398
			c-70.992,66.708-128.214,181.764-95.166,278.46c-28.764-11.322-60.894,22.031-51.102,54.468
			c13.158,43.146,71.604,40.086,96.696,9.792c96.39,9.792,224.91-18.666,301.716-83.232c1.53,5.814,4.896,11.935,6.732,16.524
			c3.06,7.956,5.508,18.359,11.016,25.704c-0.306,0.918,0,2.142,0.918,3.06c13.464,14.076,29.683,25.704,45.594,37.332
			c17.442,12.546,35.496,26.316,54.774,35.496c3.366,1.53,7.038-0.306,8.568-3.06c1.224-0.918,1.836-2.448,1.529-4.284
			c-1.224-8.874-3.365-18.054-5.813-26.929c-1.53-5.508-2.448-11.628-4.896-17.136l0,0c6.12-4.896,12.546-9.485,19.584-13.464
			c5.814-3.366,12.853-5.813,16.83-11.322C570.738,466.111,569.82,463.663,567.984,462.439z M79.608,165.312
			c-1.53-0.918-3.06-1.836-4.59-2.754c-1.224-2.448-2.142-4.896-3.366-7.344c2.754,2.142,5.508,4.284,8.568,6.12
			C80.221,162.865,79.915,164.088,79.608,165.312z M81.444,154.909c-2.448-2.142-4.896-4.59-7.038-7.038
			c-0.612-0.612-1.224,0.306-0.918,0.918c2.448,2.754,5.202,5.508,7.65,8.262c-0.306,1.224-0.306,2.142-0.612,3.366
			c-3.06-2.448-6.426-4.896-9.792-7.344c-2.448-5.202-4.59-10.71-7.038-15.912c2.448,1.53,4.896,2.754,7.344,3.672
			c0,0.306,0,0.612,0.306,0.612c3.06,3.672,6.426,7.344,10.71,9.486C81.75,152.154,81.75,153.685,81.444,154.909z M82.363,148.176
			c-3.06-2.754-6.12-5.202-8.874-8.262c0-0.306-0.306-0.306-0.306-0.612c-2.754-1.836-5.508-3.978-8.262-6.426
			c3.366,1.836,6.732,3.978,10.098,5.508c0.306,0,0.612,0,0.612,0c2.448,2.142,4.896,4.59,7.038,6.732
			C82.975,146.34,82.668,147.258,82.363,148.176z M97.969,96.157c5.202,3.366,10.404,6.732,15.912,9.792
			c0.612,0.306,1.53,0,1.836-0.612c0,0.612,0,0.918,0.306,1.224c-2.142,0.306-4.284,0.612-6.426,0.612
			c-0.612-1.836-1.224-3.06-2.754-4.284c-0.918-0.918-2.142,0-1.836,1.224c-3.672-2.142-7.344-4.284-10.71-7.038
			c-0.612-0.612-1.53-0.306-2.142,0c0-0.306,0-0.612,0-0.918c-0.306-1.224-1.53-0.918-2.142,0c-3.672-2.448-7.65-4.59-11.322-6.732
			c-1.224-0.612-2.448,1.224-1.224,1.836c3.978,2.448,7.956,5.202,12.24,7.65c0.306,0.306,1.224,0.306,1.53-0.306
			c0.306-0.306,0.306-0.306,0.306-0.612c0,0.306,0,0.612,0.306,0.918c4.284,3.672,8.568,6.426,13.464,8.874
			c-2.448,0.918-3.06,3.366-2.754,5.508c-5.814,1.53-13.158,10.098-15.606,12.546c-0.918,0.918-1.224,2.448-1.224,3.672
			c-0.306,0.306-0.306,0.612-0.306,0.918c-0.306,1.836-0.612,3.672-1.224,5.508c-0.918-0.612-1.53-1.224-2.448-2.142
			c-1.53-1.53-3.672,0.612-2.142,2.142c1.224,1.224,2.448,2.448,3.672,3.672c-0.306,0.918-0.306,1.836-0.612,2.754
			c-0.612-0.918-1.53-1.53-1.836-2.142c-1.836-1.836-3.672-3.672-5.814-5.202c-0.612-0.612-1.53-0.306-1.836,0.612
			c-4.59-2.448-9.18-4.896-13.77-7.344h-0.306c-0.612-0.918-0.918-2.142-1.53-3.06c1.836,1.224,3.672,2.142,5.814,3.06
			c0.612,0.306,0.918-0.306,1.224-0.612c0-0.612,0-0.918,0-1.224c4.284,2.754,8.874,5.508,13.464,7.956
			c1.224,0.612,2.142-0.918,0.918-1.836c-4.896-3.672-10.404-6.732-15.912-9.792c-1.224-0.612-2.448,1.224-1.224,2.142
			c0.306,0.306,0.918,0.612,1.224,0.612c-0.306,0-0.306,0-0.306,0.306c-2.448-1.53-4.896-3.06-7.038-4.59
			c-1.53-3.366-3.06-6.426-4.59-9.792c0.918,0.612,1.53,1.224,2.448,1.53c0,0.306,0,0.306,0.306,0.612
			c3.672,4.284,7.956,7.65,12.852,9.792c0.918,0.306,1.53-0.918,1.224-1.53c-0.918-1.224-1.836-2.754-2.754-3.978
			c-0.612-0.918-1.836,0-1.224,0.612c0,0.306,0.306,0.306,0.306,0.612c-1.53-1.224-3.06-2.142-4.59-3.366
			c0-0.306,0.306-0.612,0-0.612c-0.612-0.918-0.918-1.53-1.224-2.448c-0.306-0.612-1.224-0.306-1.224,0.306
			c-2.754-2.142-5.814-4.59-8.568-6.732c-1.836-3.978-3.672-7.956-5.508-11.628c3.06,2.142,6.12,3.978,9.486,5.814
			c1.224,0.612,2.142-0.918,0.918-1.836c-4.284-2.754-8.262-5.508-12.546-8.262c-1.53-2.754-2.754-5.814-3.978-8.568
			c3.366,2.448,6.732,5.202,10.404,7.038c1.53,0.918,5.508,4.59,7.344,2.142c0.306-0.612,0-1.224-0.612-1.224h-0.306
			c-0.306,0-0.612,0-0.612,0c-0.918,0.306-7.65-4.284-8.568-4.896c-3.06-1.836-6.12-4.284-9.18-6.426
			c-0.612-1.224-1.224-2.448-1.836-3.672c3.06,1.836,6.12,3.672,9.486,5.202c0.306,0.306,0.918,0,1.224-0.306
			c5.202,3.06,10.404,6.12,15.606,8.874c1.224,0.612,2.142-1.224,1.224-1.836c-5.202-3.366-10.71-6.426-16.218-9.792
			c-0.918-0.612-1.53,0-1.836,0.918c-3.672-2.142-7.344-4.284-11.016-6.426c-0.612-1.53-1.53-3.06-2.142-4.59
			c5.508,3.672,11.016,7.038,17.442,8.874c0.612,0.306,0.918-0.306,0.918-0.918c4.896,3.06,9.792,6.426,14.994,9.486
			c-0.918-0.306-1.224,0.918-0.612,1.53c4.59,3.06,9.18,6.426,14.076,9.18c0.918,0.612,1.53-0.918,0.918-1.53
			c-3.978-2.754-7.956-5.202-12.24-7.956c0.918,0.306,1.53-0.918,0.612-1.224c-5.508-3.978-11.322-7.344-17.136-11.016
			c-0.918-0.612-1.53,0.306-1.224,0.918c-6.732-3.366-13.464-6.732-19.584-11.322c-0.918-1.836-1.836-3.978-3.06-5.813
			c1.53,1.224,3.06,2.142,4.59,3.06l0,0c5.814,4.896,11.934,8.874,18.972,11.628c0.918,0.306,1.53-1.224,0.612-1.53
			c-6.426-3.366-12.546-7.038-18.36-11.628c-0.306-0.306-0.612-0.306-0.612-0.306c-1.836-1.224-3.978-2.754-5.814-3.978
			c-0.306-0.306-0.612,0-0.918,0c-0.918-1.53-1.836-3.366-2.448-4.896c4.896,2.754,10.098,5.202,15.606,7.038
			c0.918,0.306,1.53-1.224,0.612-1.53c-6.12-3.06-11.934-5.814-18.054-8.874c-0.918-1.836-1.836-3.366-2.754-5.202
			c6.426,3.978,12.852,8.262,19.89,10.71c0.918,0.306,1.53-1.224,0.612-1.53c-6.12-3.06-12.24-6.12-18.054-9.792
			c6.426,2.448,12.852,5.508,19.278,8.262c-0.306,0.612-0.306,1.224,0.306,1.53c6.426,4.284,12.852,8.568,20.196,11.628
			c0.306,0.306,0.918,0,1.224-0.306c0,0.612,0,0.918,0.612,1.224c3.06,2.448,6.12,4.896,9.486,7.038
			c1.53,0.918,2.754,2.754,4.896,2.142c0.612,0,0.918-0.612,0.918-1.224c0-0.306,0-0.306,0-0.612c0-0.306-0.306-0.918-0.918-0.918
			h-0.306c-0.306,0-0.306,0-0.612,0c-1.836-0.918-3.672-3.06-5.202-3.978c-2.142-1.836-4.59-3.366-6.732-4.896
			c-0.612-0.306-1.224-0.306-1.53,0.306c0-0.306-0.306-0.612-0.612-0.612c-4.59-2.754-9.486-5.508-14.076-8.262
			c7.038,3.06,13.77,6.426,20.808,9.792c0,0.612,0,1.224,0.612,1.53c3.672,2.448,7.038,4.59,10.71,6.732
			c1.224,0.612,2.142-0.612,1.836-1.53c0.918,0.306,1.53,0.918,2.448,1.224c0,0.306,0.306,0.612,0.612,0.918
			c1.224,0.918,2.448,1.53,3.672,2.142c-0.612,0.918-0.918,2.142,0,3.06c6.12,4.59,11.934,9.486,18.36,13.464
			c0.612,0.612,1.53,0.306,2.142-0.306c5.202,2.448,10.098,5.508,14.994,8.874c0.918,0.612,2.142-0.918,1.224-1.53
			c-4.59-4.284-10.098-7.038-15.912-9.18c0-0.918-0.612-1.836-0.918-2.448c1.224,0.612,2.448,1.53,3.672,2.142
			c0.306,0.306,0.918,0.306,1.224,0c6.732,4.284,13.77,8.568,20.502,12.852c-0.612-0.306-1.53-0.612-2.142-0.918
			c-2.142-0.918-4.284,2.448-1.836,3.366c1.836,0.918,3.978,1.836,5.814,2.448c-0.306,0-0.612,0-0.612,0
			c-2.142-1.224-4.284-2.142-6.426-3.061c-1.836-0.918-3.672,1.836-1.53,2.754c0.612,0.306,1.53,0.612,2.142,0.918
			c-1.836,0.306-3.672,0.306-5.508,0.612c-1.53-0.612-2.754-1.224-3.672-1.836c-0.918-0.612-1.53-0.306-2.142,0.306
			c0-0.306,0-0.612-0.306-0.612c-1.53-2.142-3.06-3.978-5.508-5.508c-0.612-0.306-1.224,0.306-1.224,0.918
			c-3.06-1.836-6.426-3.672-9.486-5.508C97.969,92.791,96.438,95.239,97.969,96.157z M526.062,444.997
			c-4.59,0.306-9.792,2.142-13.77,3.06c-5.814,1.53-11.322,3.672-16.83,5.814c-3.366-2.448-6.732-4.896-9.792-7.038
			c-1.53-1.224-3.061-2.448-4.896-3.979c5.814-1.836,11.628-3.365,17.442-4.59c5.202-0.918,10.403-1.529,15.3-3.06
			C517.801,438.571,521.778,441.936,526.062,444.997z M495.769,421.741c3.06,2.448,6.12,4.59,9.18,7.038
			c-9.485,1.836-19.277,6.426-27.233,9.792c-0.612,0.306-0.918,0.611-1.225,1.224c-4.59-3.672-9.18-7.344-13.77-11.016
			c5.508-0.918,11.322-1.836,16.83-2.754C485.059,424.8,490.872,424.495,495.769,421.741z M487.2,416.539L487.2,416.539
			c-3.06,0.612-6.426,1.53-9.485,2.142c-6.427,1.53-12.853,3.061-18.973,4.59c-0.611,0.307-0.918,0.612-1.529,0.919
			c-3.366-2.448-7.038-4.896-10.404-7.038c4.59-0.307,9.486-0.918,14.076-1.225c5.202-0.611,10.71-0.611,15.605-2.754
			C479.856,414.703,483.528,415.926,487.2,416.539z M71.347,466.111c0.306-0.307,0.612-0.612,0.918-1.225
			c0.306-0.918,0.918-1.529,1.53-2.142c0.612,1.53,1.224,2.754,1.836,4.284c0,0,0,0,0,0.306c0,0.612,0.306,1.224,0.918,1.836l0,0
			c0.306,0.306,0.306,0.612,0.612,0.918c0,0,0,0,0.306,0c0.612,1.224,1.53,2.754,2.142,3.979v0.306
			c-0.306,2.448-1.53,3.366-3.672,3.672C68.898,477.739,69.816,470.394,71.347,466.111z M105.006,503.749
			c-10.404,8.568-18.36,14.994-33.966,15.912c-17.442,0.918-35.496-3.061-42.228-21.114c-10.098-27.54,16.218-42.534,39.78-41.004
			c-0.306,0.612-0.918,0.918-1.224,1.53c-1.836-0.612-4.284-0.307-5.814,1.224c-7.344,7.038-6.732,19.89,0.918,26.622
			c7.038,6.12,18.972,6.12,24.48-2.448c3.978-5.813,3.06-14.994-2.754-19.277c-11.934-56.305-17.136-108.324,3.06-164.935
			c18.36-51.102,53.244-96.084,94.248-131.274c86.904-74.052,200.736-112.302,309.672-69.768
			c11.016,8.874,29.682,3.06,31.518-12.852c1.836-18.054-20.195-30.6-34.271-18.972c-4.896,2.142-7.65,6.732-8.263,11.628
			c-1.529-0.612-3.365-1.224-4.896-1.836c-0.918-3.978-1.224-8.262,0-12.852s3.366-9.486,6.12-13.77
			c10.098-6.732,26.622-5.814,37.332-2.448c18.054,5.508,24.174,23.562,18.972,40.698c-6.731,21.42-29.988,31.824-50.49,40.698
			c-82.62,4.896-164.934,65.79-219.708,122.094c-33.966,34.578-62.73,73.746-88.74,114.75
			c-14.076,22.339-27.54,45.288-40.086,68.544C127.345,456.012,118.776,482.634,105.006,503.749z M489.036,82.692
			c0.612-1.224,1.225-2.448,2.143-3.672c1.53,0.306,3.366-0.306,4.896-1.836c7.345-7.038,19.584-2.754,16.524,8.568
			c-0.306,1.224-0.918,2.448-1.53,3.366c-3.366,0.612-6.731,0.612-10.098,0.612c-0.612-0.918-1.225-1.53-2.143-1.836
			C495.463,85.752,492.402,84.223,489.036,82.692z M404.274,418.987c-82.313,63.647-188.19,69.155-287.028,84.149
			c0.306-0.611,0.306-1.224,0.306-1.836c17.748-20.502,27.54-49.572,40.086-72.828c26.316-48.042,55.386-94.554,90.882-136.476
			c1.836-2.142,3.672-4.284,5.508-6.426c47.124,45.899,100.062,93.33,156.366,128.214
			C408.253,415.621,406.417,417.151,404.274,418.987z M416.515,408.277c-50.184-44.677-103.428-89.046-157.59-128.521
			c3.978-4.59,8.262-8.874,12.546-13.464c44.676,49.878,98.838,95.472,153.612,133.722
			C422.328,403.075,419.574,405.829,416.515,408.277z M430.284,437.653c-3.06-5.814-6.426-11.935-7.956-18.055
			c0,0,0.307,0,0.307-0.306c2.142-1.836,3.978-3.979,5.813-5.814c0.612,1.225,1.53,2.143,2.448,3.061
			C429.673,423.577,429.366,430.615,430.284,437.653z M431.509,393.588c-51.408-44.063-103.122-89.046-155.754-131.58
			c25.705-26.316,54.163-50.184,85.375-69.768c44.37-27.846,90.575-39.78,138.924-55.692c4.59-1.224,9.18-3.06,13.464-5.202
			C505.866,222.535,494.851,324.126,431.509,393.588z M431.814,410.113c2.448-2.448,4.896-5.202,7.344-7.956
			c7.956,1.529,15.912,2.754,23.562,5.202c0.612,0.306,1.53,0.611,2.142,0.918c-2.142,0.306-4.284,0.611-6.426,0.918
			c-6.426,0.611-12.546,1.529-18.972,2.447c-0.612,0-1.225,0.307-1.53,0.918C435.793,411.642,433.65,410.724,431.814,410.113z
			 M440.994,469.476c0-0.306,0.307-0.611,0.307-0.918c0-0.306,0-0.306,0-0.611c0.611-0.612,1.224-1.225,0.918-2.448
			c-4.59-14.076-5.202-27.234-5.202-41.616c2.754,2.754,5.814,5.508,8.874,7.956c3.366,15.912,8.262,31.519,11.628,47.43
			C452.316,475.903,446.809,472.537,440.994,469.476z M464.557,483.859c0-0.307,0.306-0.612,0-0.918
			c-0.918-13.465-2.754-28.152-6.732-41.616c3.061,2.142,6.12,4.59,9.181,6.731c0,7.038,2.142,14.382,3.672,21.42
			c1.836,7.65,3.672,15.301,6.12,22.645C472.513,489.367,468.534,486.613,464.557,483.859z M491.179,501.913
			c-2.754-1.836-5.202-3.672-7.956-5.508c-1.53-8.874-3.366-18.055-5.202-26.929c-0.918-4.896-1.53-10.098-2.448-14.993
			c0.918,0.611,1.836,1.224,2.754,2.142c3.061,2.448,6.427,5.202,9.486,8.262c-0.612,12.546,3.06,26.928,6.732,39.475
			C493.32,503.443,492.402,502.831,491.179,501.913z M501.889,508.644c-1.53-12.239-3.061-26.315-7.344-38.556
			c3.06,2.754,6.12,5.508,9.485,7.956c-0.611,11.628,1.836,23.868,5.508,35.496C506.784,512.01,504.337,510.48,501.889,508.644z
			 M500.358,457.542c4.59-0.918,9.18-1.836,14.076-2.754c6.12-0.918,13.464,0,18.666-3.672c0.306-0.307,0.612-0.612,0.918-0.918
			c3.366,2.447,6.426,4.896,9.792,7.344c-10.71,1.836-21.114,4.896-31.518,8.568C508.009,463.357,504.03,460.602,500.358,457.542z
			 M519.942,520.579c-3.366-11.935-4.896-23.868-7.038-35.802c2.448,1.836,5.202,3.365,7.65,4.59
			c-0.306,7.956,3.06,16.218,5.508,23.562c1.53,4.896,3.06,9.792,4.896,14.688C527.286,525.474,523.614,523.027,519.942,520.579z
			 M544.116,470.394c-5.508,3.673-10.403,7.956-14.994,12.853c-3.365-4.284-7.344-8.568-11.934-12.24
			c11.016-0.612,22.338-1.53,33.048-4.59C548.095,467.64,545.952,469.17,544.116,470.394z"/>
		<path d="M185.791,231.409c-3.672-3.672-8.568-5.814-12.546-9.486c-0.612-0.612-1.836,0.306-1.224,1.224
			c3.672,3.366,7.956,7.956,12.852,9.486C185.791,232.632,186.402,231.714,185.791,231.409z"/>
		<path d="M187.32,228.654c-3.672-3.366-7.65-6.12-11.628-9.18c-0.612-0.306-1.224,0.306-0.612,0.612
			c3.366,3.366,7.038,7.038,11.322,9.486C187.32,230.185,187.933,229.267,187.32,228.654z"/>
		<path d="M206.599,243.037c-2.448,0.918-7.65-2.754-9.792-3.978c-2.754-1.53-5.202-3.06-7.65-4.59
			c-0.918-0.612-1.836,0.918-0.918,1.53c3.978,2.754,8.262,5.508,12.852,7.344c1.836,0.918,4.59,2.754,6.12,0.612
			C207.517,243.648,207.21,242.73,206.599,243.037z"/>
		<path d="M221.287,159.192c-20.808-2.448-34.884,18.054-30.906,34.578c-16.218-1.836-35.496,11.322-34.272,30.294
			c1.836,38.862,51.102,39.168,77.418,29.07c2.142-0.918,3.06-2.754,3.366-4.59c2.142,3.978,10.404,4.284,11.322-1.224
			C251.581,220.393,263.208,164.395,221.287,159.192z M217.92,170.515c2.754,2.142,5.508,4.59,8.568,6.732
			c3.06,2.448,5.814,5.202,9.486,7.038c1.224,0.612,2.142-0.612,1.224-1.836c-2.448-3.06-6.12-4.896-9.18-7.344l-6.732-4.896
			c8.262,1.224,15.912,8.568,18.972,17.136c0,0.306,0.306,0.612,0.306,0.918c-2.142-0.918-4.59-1.836-6.732-2.448
			c-0.306,0-0.612,0-0.918,0c0-0.306,0-0.306-0.306-0.612c-0.306-0.612-1.224-0.612-1.53-0.306
			c-5.814-4.59-11.934-9.18-18.054-13.464C214.555,170.82,216.084,170.515,217.92,170.515z M210.271,173.269
			c6.732,5.202,13.464,10.404,20.808,15.3c0.306,0.306,1.224,0,1.53-0.306c0,0.306,0.306,0.306,0.612,0.306
			c3.06,1.224,5.814,2.754,8.874,4.284c0.306,1.53,0.612,3.06,0.612,4.59c-4.59-3.06-9.486-6.12-14.382-8.568
			c-0.918-0.306-1.53,0.306-1.53,0.918c-5.814-5.202-11.934-9.792-17.748-14.994C209.046,173.88,209.659,173.575,210.271,173.269z
			 M237.811,236.61c-0.306-0.612-0.918-1.224-1.224-2.142c-0.612-0.918-1.836,0.306-1.53,1.224c0.306,0.306,0.306,0.918,0.612,1.224
			c-5.508-3.978-11.016-7.956-16.524-11.934c-0.612-0.306-1.224,0-1.224,0.612c-4.284-2.754-8.568-5.508-12.546-8.874
			c-1.224-0.918-2.754,0.612-1.53,1.53c4.896,3.978,9.792,7.956,15.606,10.71c0.612,0.306,1.224,0,1.53-0.612
			c5.508,4.284,10.71,8.262,16.218,12.546l0,0c-0.306,1.53-0.612,3.06-0.612,4.59c-0.612-1.224-1.836-2.142-3.978-1.836
			c-2.142,0-4.284,0.306-6.12,0.612c-4.59-2.448-9.486-4.59-14.076-7.038c-1.224,0-2.142,0.612-2.142,1.224
			c-5.202-4.59-10.71-8.874-16.218-13.158c-0.306-0.306-1.224,0.306-0.612,0.612c3.672,3.366,7.344,6.732,11.322,10.098
			c-3.978-2.142-7.65-4.59-11.322-7.038c-0.918-0.612-1.836,0.918-0.918,1.53c5.508,3.672,11.322,7.65,17.442,10.404
			c0.306,0,0.306,0,0.612,0c0.306,0.306,0.306,0.306,0.612,0.612c0.918,0.612,2.142-0.306,1.224-1.224
			c2.754,1.836,5.508,3.366,8.568,4.59c-6.732,0.918-13.77,1.53-20.808,1.224c-4.59-2.142-9.18-4.284-13.77-6.732
			c-0.612-0.306-1.224,0.612-0.612,0.918c3.366,2.142,6.426,3.672,9.792,5.508c-6.426-0.918-12.546-2.754-17.748-7.038
			c-3.366-2.754-6.426-6.426-7.956-10.098c3.978,3.672,8.568,7.65,13.77,9.792c0.612,0.306,1.836-0.612,0.918-1.224
			c-4.896-3.978-10.404-7.038-15.3-11.322c-0.306,0-0.306-0.306-0.612-0.306c-0.918-3.978-0.612-7.956,1.836-12.24
			c4.896,4.284,10.71,9.18,16.218,11.934c0.918,0.306,1.836-0.612,0.918-1.224c-4.896-4.284-11.016-8.262-16.83-11.628
			c0.306-0.306,0.306-0.612,0.306-0.612c0.612-0.918,1.224-1.224,1.836-1.836c5.202,4.284,10.404,9.18,15.912,12.24
			c0.918,0.306,1.53-0.612,0.918-1.224c-4.59-4.59-10.404-8.262-15.912-12.24c0.918-0.612,1.836-1.224,2.754-1.836
			c1.53,1.53,3.978,3.06,5.202,3.672c3.978,3.06,8.262,6.12,12.852,7.956c-0.612,0-0.918,0.918-0.306,1.224
			c5.814,4.284,11.628,8.568,17.748,12.546c0.612,0.306,1.224,0,1.224-0.612c5.202,4.284,11.016,8.568,17.442,10.71
			c1.224,0.306,1.836-1.224,0.918-1.836c-6.426-3.366-12.24-6.426-17.748-11.016c-0.612-0.612-1.836,0-1.836,0.612
			c-5.508-3.978-11.016-7.956-16.83-11.322c0.612,0,1.224-0.918,0.612-1.53c-2.754-2.448-5.814-4.284-8.874-6.12
			c-1.53-0.918-3.06-2.142-4.59-3.06c-0.612-0.306-2.448-1.224-3.672-2.142c2.142-0.612,4.59-0.612,6.732-0.306
			c4.896,3.672,9.486,7.344,14.382,11.016c0.918,0.612,2.142-0.918,1.224-1.53c-3.06-2.448-6.426-4.896-9.486-7.344
			c3.06,1.53,6.12,3.672,8.874,5.508c1.53,1.224,3.978,0.612,5.202-0.612c4.59,3.366,9.18,6.426,14.382,8.568
			c0.306,0,0.306,0,0.612,0c0,0.306,0,0.612,0.306,0.918l0.918,0.918c0.306,0.306,0.306,0.306,0.612,0.306
			c3.978,3.978,8.568,7.65,13.77,10.71C238.117,235.387,237.811,235.999,237.811,236.61z M231.997,213.661
			c2.754,2.754,5.508,5.202,8.874,7.038c-0.306,1.53-0.612,2.754-0.918,4.284c-4.284-3.06-8.568-5.508-12.852-8.568
			c-0.306-0.306-0.918,0.306-0.612,0.612c4.284,3.366,8.568,6.732,12.852,9.792c-0.306,1.53-0.612,3.366-0.918,4.896
			c-4.59-3.672-9.486-7.038-14.076-10.71c-0.612-0.306-0.918-0.306-1.53,0c0-0.306,0-0.612-0.306-0.918
			c-4.59-2.754-9.486-5.508-14.076-8.262c0.612-0.918,0.612-1.836,0.306-2.754c4.896,3.978,10.098,7.956,16.218,9.792
			c1.224,0.306,1.836-1.53,0.918-2.142c-6.426-3.672-12.24-6.732-17.748-11.628h-0.306c-0.918-1.53-1.836-3.06-2.754-4.59
			c1.53,0.918,3.366,1.53,4.896,2.142c0,0.612,0,0.918,0.612,1.224c6.12,3.06,11.934,6.426,18.054,9.18
			c1.224,0.612,2.142-1.224,1.224-1.836c-5.814-3.366-11.934-6.426-18.054-9.792h-0.306c-2.754-1.224-5.508-2.754-7.956-4.284
			c-0.918-2.142-1.53-4.59-1.836-6.732c3.672,4.284,8.262,7.956,13.464,10.404c0.918,0.306,1.53-0.612,0.612-1.224
			c-5.508-3.366-10.098-7.038-14.382-11.628c0-0.918,0-1.836,0.306-2.448c2.448,2.142,5.202,4.284,7.65,6.426
			c1.836,1.53,3.672,3.978,6.12,3.366c0.306,0,0.306-0.306,0.612-0.612c0-0.306,0-0.306,0-0.612c0-0.612-0.918-0.612-1.224-0.306
			c0,0-7.65-5.508-8.262-6.12c-1.53-1.224-3.06-2.448-4.59-3.366c0.306-1.224,0.918-2.448,1.224-3.672
			c2.448,2.754,5.202,5.508,8.262,7.65c1.53,1.224,5.202,4.896,7.65,4.284c0,0.612,0.306,0.918,0.612,1.224
			c6.426,4.896,13.158,9.486,20.502,12.852c1.224,0.612,2.448-1.224,1.224-2.142c-6.426-4.896-13.464-8.874-19.89-13.464
			c-0.306-0.306-0.918-0.306-1.224-0.306v-0.306c-0.306-0.612-1.53-0.612-1.53,0.306c0.306-1.224-7.956-6.426-8.874-7.344
			c-1.836-1.53-3.366-3.366-5.202-5.202c0.612-0.612,0.918-1.53,1.53-2.142c5.814,5.508,12.24,11.322,18.972,15.3
			c0.612,0.306,1.53-0.306,1.53-0.918c4.896,3.366,10.098,6.732,15.3,9.486c0.306,3.06,0,6.12-0.306,9.18
			c-1.836-1.224-3.672-2.448-5.814-3.672c-1.224-0.612-2.142,0.306-2.142,1.53c-5.202-2.142-10.404-4.59-14.994-7.956
			c-0.918-0.612-1.836,0.918-1.224,1.53c4.896,3.978,10.098,6.732,16.218,8.874c0.612,0.306,0.918,0,0.918-0.612
			c2.142,1.224,4.284,2.754,6.426,4.284c-0.306,1.224-0.306,2.448-0.306,3.672c-2.448-1.836-4.896-3.672-7.038-5.814
			C232.915,209.683,230.467,212.13,231.997,213.661z"/>
	</g>
</g>
<g>
</g>
<g>
</g>
<g>
</g>
<g>
</g>
<g>
</g>
<g>
</g>
<g>
</g>
<g>
</g>
<g>
</g>
<g>
</g>
<g>
</g>
<g>
</g>
<g>
</g>
<g>
</g>
<g>
</g>
</svg>
