<?xml version="1.0" encoding="iso-8859-1"?>
<!-- Generator: Adobe Illustrator 19.0.0, SVG Export Plug-In . SVG Version: 6.00 Build 0)  -->
<svg version="1.1" id="Layer_1" xmlns="http://www.w3.org/2000/svg" xmlns:xlink="http://www.w3.org/1999/xlink" x="0px" y="0px"
	 viewBox="0 0 511.999 511.999" style="enable-background:new 0 0 511.999 511.999;" xml:space="preserve">
<path style="fill:#89BBE4;" d="M273.234,1.826l163.692,35.087c14.122,3.027,24.211,15.508,24.211,29.951V263.7
	c0,128.089-114.226,209.637-188.434,244.563c-10.588,4.983-22.819,4.983-33.407,0C165.088,473.337,50.862,391.789,50.862,263.7
	V66.864c0-14.443,10.088-26.924,24.211-29.951L238.768,1.826C250.127-0.609,261.873-0.609,273.234,1.826z"/>
<g>
	<path style="fill:#F9C526;" d="M99.417,230.79v32.91c0,47.384,20.576,91.858,61.157,132.187
		c28.266,28.091,59.709,47.92,83.654,60.577c3.683,1.947,7.728,2.92,11.773,2.92V230.79H99.417z"/>
	<path style="fill:#F9C526;" d="M412.584,230.79V101.798c0-11.927-8.331-22.233-19.993-24.733L272.577,51.342
		c-5.463-1.172-11.02-1.757-16.576-1.757V230.79L412.584,230.79L412.584,230.79z"/>
</g>
<path style="fill:#1F84CE;" d="M256.001,49.585c-5.557,0-11.113,0.585-16.576,1.757L119.41,77.066
	c-11.662,2.5-19.993,12.806-19.993,24.733V230.79h156.584V49.585z"/>
<path style="opacity:0.2;fill:#145587;enable-background:new    ;" d="M239.424,51.341L119.41,77.066
	c-11.662,2.5-19.993,12.806-19.993,24.733v15.43c0-11.927,8.331-22.233,19.993-24.733l120.014-25.724
	c5.463-1.171,11.02-1.757,16.576-1.757v-15.43C250.444,49.585,244.888,50.17,239.424,51.341z"/>
<path style="fill:#F9C526;" d="M392.592,92.495c11.662,2.5,19.993,12.806,19.993,24.733v-15.43c0-11.927-8.331-22.233-19.993-24.733
	L272.577,51.341c-5.463-1.171-11.02-1.757-16.576-1.757v15.43c5.556,0,11.113,0.585,16.576,1.757L392.592,92.495z"/>
<path style="opacity:0.2;fill:#145587;enable-background:new    ;" d="M392.592,92.495c11.662,2.5,19.993,12.806,19.993,24.733
	v-15.43c0-11.927-8.331-22.233-19.993-24.733L272.577,51.341c-5.463-1.171-11.02-1.757-16.576-1.757v15.43
	c5.556,0,11.113,0.585,16.576,1.757L392.592,92.495z"/>
<path style="fill:#1F84CE;" d="M351.427,395.887c40.58-40.33,61.157-84.803,61.157-132.187v-32.91H256.001v228.594
	c4.045,0,8.089-0.974,11.773-2.92C291.72,443.806,323.161,423.978,351.427,395.887z"/>
<path style="opacity:0.2;fill:#FFFFFF;enable-background:new    ;" d="M436.926,36.913l-33.347-7.148L73.901,359.444
	c15.386,30.587,37.157,57.013,61.203,79.272l326.034-326.034V66.864C461.138,52.42,451.049,39.94,436.926,36.913z"/>
<g>
</g>
<g>
</g>
<g>
</g>
<g>
</g>
<g>
</g>
<g>
</g>
<g>
</g>
<g>
</g>
<g>
</g>
<g>
</g>
<g>
</g>
<g>
</g>
<g>
</g>
<g>
</g>
<g>
</g>
</svg>
