<?xml version="1.0" encoding="iso-8859-1"?>
<!-- Generator: Adobe Illustrator 19.1.0, SVG Export Plug-In . SVG Version: 6.00 Build 0)  -->
<svg version="1.1" id="Capa_1" xmlns="http://www.w3.org/2000/svg" xmlns:xlink="http://www.w3.org/1999/xlink" x="0px" y="0px"
	 viewBox="0 0 194.665 194.665" style="enable-background:new 0 0 194.665 194.665;" xml:space="preserve">
<g>
	<g>
		<path d="M97.333,166.947c-38.548,0-69.91-31.357-69.91-69.9s31.361-69.9,69.91-69.9c38.545,0,69.903,31.357,69.903,69.9
			S135.877,166.947,97.333,166.947z M97.333,28.747c-37.666,0-68.31,30.64-68.31,68.3s30.644,68.3,68.31,68.3
			c37.663,0,68.304-30.64,68.304-68.3S134.995,28.747,97.333,28.747z"/>
		<path d="M97.333,138.022c-22.596,0-40.979-18.381-40.979-40.975c0-22.594,18.383-40.976,40.979-40.976
			c22.592,0,40.972,18.381,40.972,40.976C138.305,119.641,119.925,138.022,97.333,138.022z M97.333,57.671
			c-21.713,0-39.379,17.664-39.379,39.376c0,21.711,17.666,39.375,39.379,39.375c21.71,0,39.373-17.664,39.373-39.375
			C136.705,75.335,119.042,57.671,97.333,57.671z"/>
		<g>
			<path d="M97.333,194.665c-0.442,0-0.8-0.358-0.8-0.8v-56.198c0-0.442,0.358-0.8,0.8-0.8s0.8,0.358,0.8,0.8v56.198
				C98.132,194.307,97.774,194.665,97.333,194.665z"/>
			<path d="M97.333,57.219c-0.442,0-0.8-0.358-0.8-0.8V0.8c0-0.442,0.358-0.8,0.8-0.8s0.8,0.358,0.8,0.8v55.62
				C98.132,56.861,97.774,57.219,97.333,57.219z"/>
		</g>
		<g>
			<path d="M56.998,98.132H0.8c-0.442,0-0.8-0.358-0.8-0.8s0.358-0.8,0.8-0.8h56.198c0.442,0,0.8,0.358,0.8,0.8
				S57.44,98.132,56.998,98.132z"/>
			<path d="M193.865,98.132h-56.198c-0.442,0-0.8-0.358-0.8-0.8s0.358-0.8,0.8-0.8h56.198c0.442,0,0.8,0.358,0.8,0.8
				S194.307,98.132,193.865,98.132z"/>
		</g>
	</g>
</g>
<g>
</g>
<g>
</g>
<g>
</g>
<g>
</g>
<g>
</g>
<g>
</g>
<g>
</g>
<g>
</g>
<g>
</g>
<g>
</g>
<g>
</g>
<g>
</g>
<g>
</g>
<g>
</g>
<g>
</g>
</svg>
